<svg width="547" height="116" viewBox="0 0 547 116" fill="none" xmlns="http://www.w3.org/2000/svg">
<path d="M43.8 83.2C43.8 81.6084 41.6585 80.7952 40.42 81.7949C40.076 82.0726 39.7227 82.3409 39.36 82.6C37.92 83.72 36.08 84.72 33.84 85.6C31.68 86.4 29.2 86.8 26.4 86.8C23.12 86.8 19.88 86.04 16.68 84.52C13.56 82.92 10.76 80.8 8.28 78.16C5.8 75.52 3.8 72.44 2.28 68.92C0.76 65.32 0 61.48 0 57.4C0 53.32 0.76 49.52 2.28 46C3.8 42.4 5.8 39.28 8.28 36.64C10.76 34 13.56 31.92 16.68 30.4C19.88 28.8 23.12 28 26.4 28C29.2 28 31.68 28.44 33.84 29.32C36.08 30.2 37.92 31.16 39.36 32.2C39.5864 32.3725 39.8092 32.5472 40.0283 32.724C41.4257 33.8518 43.8 32.9208 43.8 31.1251V31.1251C43.8 30.0619 44.6619 29.2 45.7252 29.2H56.8C57.9201 29.2 58.4802 29.2 58.908 29.418C59.2843 29.6097 59.5903 29.9157 59.782 30.292C60 30.7198 60 31.2799 60 32.4V83.2C60 87.44 59.2 91.36 57.6 94.96C56.08 98.64 53.92 101.8 51.12 104.44C48.4 107.16 45.12 109.28 41.28 110.8C37.44 112.4 33.28 113.2 28.8 113.2C24.24 113.2 20.28 112.56 16.92 111.28C13.56 110 10.76 108.56 8.52 106.96C6.71822 105.704 5.10276 104.318 3.67362 102.801C3.04894 102.138 2.73661 101.807 2.60188 101.346C2.49115 100.967 2.50572 100.482 2.63896 100.11C2.80109 99.6578 3.16938 99.3112 3.90597 98.6179L9.3717 93.4737C10.2727 92.6257 10.7232 92.2017 11.1534 92.0635C11.5868 91.9243 11.8835 91.92 12.3208 92.0465C12.7548 92.1721 13.3133 92.6678 14.4304 93.6594C14.9485 94.1194 15.4984 94.5529 16.08 94.96C17.44 95.92 19.12 96.8 21.12 97.6C23.12 98.4 25.48 98.8 28.2 98.8C33 98.8 36.8 97.4 39.6 94.6C42.4 91.8 43.8 88 43.8 83.2V83.2ZM16.8 57.4C16.8 59.48 17.12 61.4 17.76 63.16C18.48 64.92 19.44 66.44 20.64 67.72C21.84 69 23.24 70 24.84 70.72C26.44 71.44 28.16 71.8 30 71.8C31.76 71.8 33.48 71.44 35.16 70.72C36.84 70 38.32 69 39.6 67.72C40.88 66.36 41.88 64.84 42.6 63.16C43.4 61.4 43.8 59.48 43.8 57.4C43.8 55.4 43.4 53.52 42.6 51.76C41.88 50 40.88 48.48 39.6 47.2C38.32 45.84 36.84 44.8 35.16 44.08C33.48 43.36 31.76 43 30 43C28.16 43 26.44 43.36 24.84 44.08C23.24 44.8 21.84 45.8 20.64 47.08C19.44 48.36 18.48 49.88 17.76 51.64C17.12 53.4 16.8 55.32 16.8 57.4Z" fill="black"/>
<path d="M87.897 64C86.6458 64 86.0202 64 85.4997 64.3703C85.1092 64.6482 84.7366 65.2694 84.6754 65.7448C84.5939 66.3784 84.828 66.8169 85.2963 67.694C86.1329 69.261 87.2852 70.7097 88.7531 72.04C91.3931 74.28 94.9931 75.4 99.5531 75.4C102.113 75.4 104.353 75.04 106.273 74.32C108.193 73.52 109.833 72.68 111.193 71.8C111.574 71.5394 111.942 71.2687 112.298 70.9879C113.572 69.983 114.209 69.4805 114.682 69.3872C115.156 69.2938 115.477 69.3327 115.914 69.5369C116.352 69.7408 116.77 70.2791 117.608 71.3558L121.927 76.9095C122.499 77.6446 122.785 78.0121 122.881 78.4598C122.958 78.8226 122.916 79.294 122.775 79.6373C122.602 80.0609 122.298 80.3339 121.69 80.8797C120.331 82.0995 118.792 83.1929 117.073 84.16C114.913 85.44 112.273 86.6 109.153 87.64C106.033 88.68 102.433 89.2 98.3531 89.2C94.0331 89.2 89.9531 88.4 86.1131 86.8C82.3531 85.2 79.0331 83 76.1531 80.2C73.3531 77.4 71.1531 74.16 69.5531 70.48C67.9531 66.8 67.1531 62.84 67.1531 58.6C67.1531 54.44 67.9531 50.52 69.5531 46.84C71.1531 43.08 73.3531 39.8 76.1531 37C78.9531 34.2 82.1931 32 85.8731 30.4C89.5531 28.8 93.5131 28 97.7531 28C101.913 28 105.793 28.76 109.393 30.28C112.993 31.72 116.113 33.76 118.753 36.4C121.393 39.04 123.433 42.16 124.873 45.76C126.393 49.36 127.153 53.24 127.153 57.4C127.153 58.52 127.113 59.48 127.033 60.28C126.953 61.08 126.873 61.76 126.793 62.32V62.32C126.787 62.3671 126.802 62.2493 126.802 62.2505C126.68 63.2187 125.796 63.9988 124.82 64C124.819 64 124.881 64 124.856 64H87.897ZM97.7531 41.8C94.1531 41.8 91.1531 42.84 88.7531 44.92C87.5034 46.0405 86.4626 47.3002 85.6307 48.6992C85.0595 49.6598 84.774 50.14 84.8365 50.7912C84.8842 51.2886 85.2423 51.9182 85.6455 52.2135C86.1732 52.6 86.8524 52.6 88.2108 52.6H107.009C108.275 52.6 108.907 52.6 109.426 52.2324C109.818 51.9555 110.189 51.3413 110.253 50.8662C110.338 50.2357 110.104 49.789 109.636 48.8958C108.862 47.4179 107.821 46.0927 106.513 44.92C104.273 42.84 101.353 41.8 97.7531 41.8Z" fill="black"/>
<path d="M147.591 58.6C147.591 60.84 147.951 62.92 148.671 64.84C149.471 66.76 150.511 68.4 151.791 69.76C153.151 71.12 154.711 72.2 156.471 73C158.231 73.8 160.071 74.2 161.991 74.2C163.911 74.2 165.751 73.8 167.511 73C169.271 72.2 170.791 71.12 172.071 69.76C173.431 68.4 174.471 66.76 175.191 64.84C175.991 62.92 176.391 60.84 176.391 58.6C176.391 56.36 175.991 54.28 175.191 52.36C174.471 50.44 173.431 48.8 172.071 47.44C170.791 46.08 169.271 45 167.511 44.2C165.751 43.4 163.911 43 161.991 43C160.071 43 158.231 43.4 156.471 44.2C154.711 45 153.151 46.08 151.791 47.44C150.511 48.8 149.471 50.44 148.671 52.36C147.951 54.28 147.591 56.36 147.591 58.6ZM193.191 58.6C193.191 62.68 192.351 66.56 190.671 70.24C188.991 73.92 186.711 77.16 183.831 79.96C181.031 82.76 177.711 85 173.871 86.68C170.111 88.36 166.151 89.2 161.991 89.2C157.751 89.2 153.751 88.36 149.991 86.68C146.231 85 142.911 82.76 140.031 79.96C137.231 77.16 134.991 73.92 133.311 70.24C131.631 66.56 130.791 62.68 130.791 58.6C130.791 54.52 131.631 50.64 133.311 46.96C134.991 43.28 137.231 40.04 140.031 37.24C142.911 34.44 146.231 32.2 149.991 30.52C153.751 28.84 157.751 28 161.991 28C166.151 28 170.111 28.84 173.871 30.52C177.711 32.2 181.031 34.44 183.831 37.24C186.711 40.04 188.991 43.28 190.671 46.96C192.351 50.64 193.191 54.52 193.191 58.6Z" fill="black"/>
<path d="M235.772 43.4583C235.772 44.1524 235.137 44.6741 234.452 44.56V44.56C233.972 44.48 233.372 44.4 232.652 44.32C232.012 44.24 231.252 44.2 230.372 44.2C226.132 44.2 222.772 45.52 220.292 48.16C217.812 50.8 216.572 54.68 216.572 59.8V84.8C216.572 85.9201 216.572 86.4802 216.354 86.908C216.162 87.2843 215.856 87.5903 215.48 87.782C215.052 88 214.492 88 213.372 88H203.572C202.452 88 201.892 88 201.464 87.782C201.088 87.5903 200.782 87.2843 200.59 86.908C200.372 86.4802 200.372 85.9201 200.372 84.8V32.4C200.372 31.2799 200.372 30.7198 200.59 30.292C200.782 29.9157 201.088 29.6097 201.464 29.418C201.892 29.2 202.452 29.2 203.572 29.2H214.658C215.715 29.2 216.572 30.0569 216.572 31.1138V31.1138C216.572 32.9039 219.001 33.8764 220.467 32.8499C220.607 32.7521 220.749 32.6555 220.892 32.56C222.332 31.6 224.092 30.72 226.172 29.92C228.252 29.04 230.652 28.6 233.372 28.6V28.6C233.743 28.6 233.929 28.6 234.085 28.6246C234.941 28.7602 235.612 29.4313 235.747 30.2871C235.772 30.4426 235.772 30.6284 235.772 31V43.4583Z" fill="black"/>
<path d="M280.186 83.2C280.186 81.6084 278.044 80.7952 276.806 81.7949C276.462 82.0726 276.109 82.3409 275.746 82.6C274.306 83.72 272.466 84.72 270.226 85.6C268.066 86.4 265.586 86.8 262.786 86.8C259.506 86.8 256.266 86.04 253.066 84.52C249.946 82.92 247.146 80.8 244.666 78.16C242.186 75.52 240.186 72.44 238.666 68.92C237.146 65.32 236.386 61.48 236.386 57.4C236.386 53.32 237.146 49.52 238.666 46C240.186 42.4 242.186 39.28 244.666 36.64C247.146 34 249.946 31.92 253.066 30.4C256.266 28.8 259.506 28 262.786 28C265.586 28 268.066 28.44 270.226 29.32C272.466 30.2 274.306 31.16 275.746 32.2C275.972 32.3725 276.195 32.5472 276.414 32.724C277.812 33.8518 280.186 32.9208 280.186 31.1251V31.1251C280.186 30.0619 281.048 29.2 282.111 29.2H293.186C294.306 29.2 294.866 29.2 295.294 29.418C295.67 29.6097 295.976 29.9157 296.168 30.292C296.386 30.7198 296.386 31.2799 296.386 32.4V83.2C296.386 87.44 295.586 91.36 293.986 94.96C292.466 98.64 290.306 101.8 287.506 104.44C284.786 107.16 281.506 109.28 277.666 110.8C273.826 112.4 269.666 113.2 265.186 113.2C260.626 113.2 256.666 112.56 253.306 111.28C249.946 110 247.146 108.56 244.906 106.96C243.104 105.704 241.489 104.318 240.06 102.801C239.435 102.138 239.123 101.807 238.988 101.346C238.877 100.967 238.892 100.482 239.025 100.11C239.187 99.6578 239.555 99.3112 240.292 98.6179L245.758 93.4737C246.659 92.6257 247.109 92.2017 247.539 92.0635C247.973 91.9243 248.269 91.92 248.707 92.0465C249.141 92.1721 249.699 92.6678 250.816 93.6594C251.334 94.1194 251.884 94.5529 252.466 94.96C253.826 95.92 255.506 96.8 257.506 97.6C259.506 98.4 261.866 98.8 264.586 98.8C269.386 98.8 273.186 97.4 275.986 94.6C278.786 91.8 280.186 88 280.186 83.2V83.2ZM253.186 57.4C253.186 59.48 253.506 61.4 254.146 63.16C254.866 64.92 255.826 66.44 257.026 67.72C258.226 69 259.626 70 261.226 70.72C262.826 71.44 264.546 71.8 266.386 71.8C268.146 71.8 269.866 71.44 271.546 70.72C273.226 70 274.706 69 275.986 67.72C277.266 66.36 278.266 64.84 278.986 63.16C279.786 61.4 280.186 59.48 280.186 57.4C280.186 55.4 279.786 53.52 278.986 51.76C278.266 50 277.266 48.48 275.986 47.2C274.706 45.84 273.226 44.8 271.546 44.08C269.866 43.36 268.146 43 266.386 43C264.546 43 262.826 43.36 261.226 44.08C259.626 44.8 258.226 45.8 257.026 47.08C255.826 48.36 254.866 49.88 254.146 51.64C253.506 53.4 253.186 55.32 253.186 57.4Z" fill="black"/>
<path d="M323.939 84.8C323.939 85.9201 323.939 86.4802 323.721 86.908C323.529 87.2843 323.223 87.5903 322.847 87.782C322.419 88 321.859 88 320.739 88H310.939C309.819 88 309.259 88 308.831 87.782C308.455 87.5903 308.149 87.2843 307.957 86.908C307.739 86.4802 307.739 85.9201 307.739 84.8V32.4C307.739 31.2799 307.739 30.7198 307.957 30.292C308.149 29.9157 308.455 29.6097 308.831 29.418C309.259 29.2 309.819 29.2 310.939 29.2H320.739C321.859 29.2 322.419 29.2 322.847 29.418C323.223 29.6097 323.529 29.9157 323.721 30.292C323.939 30.7198 323.939 31.2799 323.939 32.4V84.8ZM325.139 12.4C325.139 15.12 324.299 17.32 322.619 19C320.939 20.6 318.579 21.4 315.539 21.4C312.819 21.4 310.619 20.6 308.939 19C307.339 17.32 306.539 15.12 306.539 12.4C306.539 9.68 307.339 7.52 308.939 5.92C310.619 4.24 312.819 3.39999 315.539 3.39999C318.579 3.39999 320.939 4.24 322.619 5.92C324.299 7.52 325.139 9.68 325.139 12.4Z" fill="black"/>
<path d="M379.586 58.6C379.586 60.84 379.946 62.92 380.666 64.84C381.466 66.76 382.506 68.4 383.786 69.76C385.146 71.12 386.706 72.2 388.466 73C390.226 73.8 392.066 74.2 393.986 74.2C395.906 74.2 397.746 73.8 399.506 73C401.266 72.2 402.786 71.12 404.066 69.76C405.426 68.4 406.466 66.76 407.186 64.84C407.986 62.92 408.386 60.84 408.386 58.6C408.386 56.36 407.986 54.28 407.186 52.36C406.466 50.44 405.426 48.8 404.066 47.44C402.786 46.08 401.266 45 399.506 44.2C397.746 43.4 395.906 43 393.986 43C392.066 43 390.226 43.4 388.466 44.2C386.706 45 385.146 46.08 383.786 47.44C382.506 48.8 381.466 50.44 380.666 52.36C379.946 54.28 379.586 56.36 379.586 58.6ZM425.186 58.6C425.186 62.68 424.346 66.56 422.666 70.24C420.986 73.92 418.706 77.16 415.826 79.96C413.026 82.76 409.706 85 405.866 86.68C402.106 88.36 398.146 89.2 393.986 89.2C389.746 89.2 385.746 88.36 381.986 86.68C378.226 85 374.906 82.76 372.026 79.96C369.226 77.16 366.986 73.92 365.306 70.24C363.626 66.56 362.786 62.68 362.786 58.6C362.786 54.52 363.626 50.64 365.306 46.96C366.986 43.28 369.226 40.04 372.026 37.24C374.906 34.44 378.226 32.2 381.986 30.52C385.746 28.84 389.746 28 393.986 28C398.146 28 402.106 28.84 405.866 30.52C409.706 32.2 413.026 34.44 415.826 37.24C418.706 40.04 420.986 43.28 422.666 46.96C424.346 50.64 425.186 54.52 425.186 58.6Z" fill="black"/>
<path d="M467.064 43.9746C466.369 44.7695 466.021 45.167 465.705 45.3382C465.162 45.6321 464.778 45.6723 464.186 45.4971C463.841 45.3951 463.309 44.9967 462.247 44.2V44.2C461.367 43.56 460.327 43 459.127 42.52C458.007 42.04 456.687 41.8 455.167 41.8C452.767 41.8 450.967 42.32 449.767 43.36C448.567 44.32 447.967 45.4 447.967 46.6C447.967 47.96 448.607 49.08 449.887 49.96C451.247 50.76 452.927 51.52 454.927 52.24C456.927 52.88 459.087 53.6 461.407 54.4C463.807 55.12 466.007 56.16 468.007 57.52C470.007 58.8 471.647 60.48 472.927 62.56C474.287 64.64 474.967 67.32 474.967 70.6C474.967 73.16 474.447 75.56 473.407 77.8C472.367 80.04 470.847 82 468.847 83.68C466.927 85.36 464.487 86.72 461.527 87.76C458.647 88.72 455.327 89.2 451.567 89.2C447.327 89.2 443.687 88.64 440.647 87.52C437.607 86.4 435.127 85.16 433.207 83.8C431.698 82.8116 430.376 81.7047 429.239 80.4794C428.697 79.8946 428.426 79.6021 428.293 79.1531C428.187 78.7952 428.196 78.2996 428.315 77.9459C428.465 77.5022 428.795 77.172 429.456 76.5116L433.958 72.009C434.848 71.1187 435.294 70.6736 435.723 70.5227C436.158 70.3699 436.453 70.3584 436.899 70.4767C437.339 70.5935 437.921 71.091 439.086 72.0861C439.358 72.3189 439.639 72.5435 439.927 72.76C441.047 73.64 442.367 74.4 443.887 75.04C445.407 75.68 447.167 76 449.167 76C451.887 76 453.847 75.48 455.047 74.44C456.327 73.4 456.967 72.12 456.967 70.6C456.967 69.08 456.287 67.92 454.927 67.12C453.647 66.24 452.007 65.44 450.007 64.72C448.007 64 445.807 63.28 443.407 62.56C441.087 61.76 438.927 60.72 436.927 59.44C434.927 58.16 433.247 56.52 431.887 54.52C430.607 52.52 429.967 49.88 429.967 46.6C429.967 44.36 430.527 42.12 431.647 39.88C432.767 37.64 434.327 35.64 436.327 33.88C438.407 32.12 440.847 30.72 443.647 29.68C446.447 28.56 449.487 28 452.767 28C456.207 28 459.207 28.48 461.767 29.44C464.327 30.4 466.447 31.44 468.127 32.56C469.273 33.3395 470.315 34.1584 471.251 35.0168C471.874 35.588 472.185 35.8736 472.354 36.3153C472.49 36.6723 472.517 37.162 472.421 37.5318C472.302 37.9893 471.984 38.3519 471.35 39.0769L467.064 43.9746Z" fill="black"/>
<path d="M351.6 57.6C351.6 64.88 352.4 71.56 354 77.64C355.68 83.72 357.56 89.04 359.64 93.6C361.512 97.719 363.579 101.546 365.841 105.081C366.525 106.15 366.867 106.685 366.908 107.179C366.946 107.626 366.844 108.038 366.604 108.416C366.338 108.835 365.808 109.138 364.747 109.744L357.541 113.862C356.711 114.337 356.295 114.574 355.858 114.612C355.484 114.645 355.077 114.562 354.746 114.386C354.358 114.18 354.081 113.816 353.526 113.087C350.447 109.041 347.685 104.506 345.24 99.48C342.76 94.44 340.48 88.4 338.4 81.36C336.4 74.24 335.4 66.32 335.4 57.6C335.4 48.88 336.4 41 338.4 33.96C340.48 26.84 342.76 20.76 345.24 15.72C347.669 10.7266 350.411 6.21705 353.467 2.19126C354.039 1.43746 354.325 1.06055 354.724 0.853149C355.066 0.675546 355.485 0.597738 355.868 0.640642C356.316 0.690745 356.736 0.950723 357.576 1.47068L364.888 5.99755C365.903 6.62546 366.41 6.93941 366.66 7.35814C366.886 7.73671 366.976 8.14343 366.932 8.58214C366.884 9.06738 366.545 9.58707 365.867 10.6264C363.595 14.1099 361.519 17.8878 359.64 21.96C357.56 26.44 355.68 31.68 354 37.68C352.4 43.68 351.6 50.32 351.6 57.6Z" fill="black" fill-opacity="0.6"/>
<path d="M490.037 57.6C490.037 50.32 489.197 43.68 487.517 37.68C485.837 31.68 483.957 26.44 481.877 21.96C479.995 17.8822 477.941 14.0996 475.715 10.6122C475.056 9.58043 474.727 9.06453 474.682 8.58205C474.641 8.14649 474.734 7.74157 474.959 7.36662C475.208 6.95127 475.71 6.64089 476.713 6.02011L484.036 1.48639C484.884 0.961372 485.308 0.698865 485.759 0.649736C486.145 0.60764 486.566 0.687935 486.909 0.869202C487.31 1.08076 487.596 1.4646 488.167 2.23227C491.153 6.24768 493.856 10.7436 496.277 15.72C497.477 18.28 498.677 21.08 499.877 24.12C501.077 27.16 502.157 30.44 503.117 33.96C504.077 37.48 504.837 41.24 505.397 45.24C505.957 49.16 506.237 53.28 506.237 57.6C506.237 61.92 505.957 66.08 505.397 70.08C504.837 74 504.077 77.72 503.117 81.24C502.157 84.76 501.077 88.04 499.877 91.08C498.677 94.2 497.477 97 496.277 99.48C493.841 104.489 491.117 109.011 488.108 113.047C487.554 113.789 487.277 114.161 486.888 114.371C486.555 114.551 486.147 114.636 485.769 114.604C485.329 114.567 484.91 114.327 484.071 113.848L476.852 109.723C475.803 109.123 475.279 108.824 475.014 108.408C474.774 108.033 474.671 107.623 474.705 107.18C474.743 106.688 475.075 106.157 475.74 105.096C477.957 101.557 480.002 97.7248 481.877 93.6C483.957 89.04 485.837 83.72 487.517 77.64C489.197 71.56 490.037 64.88 490.037 57.6Z" fill="black" fill-opacity="0.6"/>
<circle cx="528.465" cy="18.0651" r="18.0651" fill="#FF185E"/>
<path d="M524.648 28.0361V21.3921M524.648 21.3921C524.648 21.3921 524.648 14.8188 524.648 12.5106C524.771 10.1702 526.702 9.33975 528.572 9.33975C530.738 9.33975 532.285 11.0943 532.239 13.293C532.167 16.7215 528.122 16.4869 528.122 16.4869C528.122 16.4869 533.523 16.0606 533.428 21.3921C533.428 21.3921 533.476 24.9034 529.069 24.9034C524.571 24.9619 524.648 21.3921 524.648 21.3921Z" stroke="white" stroke-width="2.66938" stroke-miterlimit="11.4737" stroke-linecap="round"/>
</svg>
