<svg width="422" height="120" viewBox="0 0 422 120" fill="none" xmlns="http://www.w3.org/2000/svg">
<path d="M44.655 89.125C44.655 87.5334 42.5135 86.7202 41.275 87.7199C40.931 87.9976 40.5777 88.2659 40.215 88.525C38.775 89.645 36.935 90.645 34.695 91.525C32.535 92.325 30.055 92.725 27.255 92.725C23.975 92.725 20.735 91.965 17.535 90.445C14.415 88.845 11.615 86.725 9.13498 84.085C6.65498 81.445 4.65498 78.365 3.13498 74.845C1.61498 71.245 0.85498 67.405 0.85498 63.325C0.85498 59.245 1.61498 55.445 3.13498 51.925C4.65498 48.325 6.65498 45.205 9.13498 42.565C11.615 39.925 14.415 37.845 17.535 36.325C20.735 34.725 23.975 33.925 27.255 33.925C30.055 33.925 32.535 34.365 34.695 35.245C36.935 36.125 38.775 37.085 40.215 38.125C40.4414 38.2975 40.6642 38.4722 40.8833 38.649C42.2807 39.7768 44.655 38.8458 44.655 37.0501C44.655 35.9869 45.5169 35.125 46.5801 35.125H58.855C59.9596 35.125 60.855 36.0204 60.855 37.125V89.125C60.855 93.365 60.055 97.285 58.455 100.885C56.935 104.565 54.775 107.725 51.975 110.365C49.255 113.085 45.975 115.205 42.135 116.725C38.295 118.325 34.135 119.125 29.655 119.125C25.095 119.125 21.135 118.485 17.775 117.205C14.415 115.925 11.615 114.485 9.37498 112.885C7.25985 111.411 5.40148 109.757 3.79987 107.923C3.12461 107.15 3.22374 105.99 3.97121 105.286L11.2123 98.471C12.0858 97.6489 13.4765 97.7839 14.309 98.6476C15.0975 99.4657 15.9729 100.212 16.935 100.885C18.295 101.845 19.975 102.725 21.975 103.525C23.975 104.325 26.335 104.725 29.055 104.725C33.855 104.725 37.655 103.325 40.455 100.525C43.255 97.725 44.655 93.925 44.655 89.125ZM17.655 63.325C17.655 65.405 17.975 67.325 18.615 69.085C19.335 70.845 20.295 72.365 21.495 73.645C22.695 74.925 24.095 75.925 25.695 76.645C27.295 77.365 29.015 77.725 30.855 77.725C32.615 77.725 34.335 77.365 36.015 76.645C37.695 75.925 39.175 74.925 40.455 73.645C41.735 72.285 42.735 70.765 43.455 69.085C44.255 67.325 44.655 65.405 44.655 63.325C44.655 61.325 44.255 59.445 43.455 57.685C42.735 55.925 41.735 54.405 40.455 53.125C39.175 51.765 37.695 50.725 36.015 50.005C34.335 49.285 32.615 48.925 30.855 48.925C29.015 48.925 27.295 49.285 25.695 50.005C24.095 50.725 22.695 51.725 21.495 53.005C20.295 54.285 19.335 55.805 18.615 57.565C17.975 59.325 17.655 61.245 17.655 63.325Z" fill="black"/>
<path d="M87.273 69.925C86.0027 69.925 85.0485 71.1024 85.5248 72.28C86.3696 74.3686 87.7307 76.2636 89.6081 77.965C92.2481 80.205 95.8481 81.325 100.408 81.325C102.968 81.325 105.208 80.965 107.128 80.245C109.048 79.445 110.688 78.605 112.048 77.725C112.852 77.1747 113.601 76.5795 114.293 75.9396C115.234 75.0699 116.756 75.086 117.542 76.0974L123.392 83.6184C123.982 84.3765 123.955 85.4537 123.269 86.1256C121.741 87.6219 119.961 88.9417 117.928 90.085C115.768 91.365 113.128 92.525 110.008 93.565C106.888 94.605 103.288 95.125 99.2081 95.125C94.8881 95.125 90.8081 94.325 86.9681 92.725C83.2081 91.125 79.8881 88.925 77.0081 86.125C74.2081 83.325 72.0081 80.085 70.4081 76.405C68.8081 72.725 68.0081 68.765 68.0081 64.525C68.0081 60.365 68.8081 56.445 70.4081 52.765C72.0081 49.005 74.2081 45.725 77.0081 42.925C79.8081 40.125 83.0481 37.925 86.7281 36.325C90.4081 34.725 94.3681 33.925 98.6081 33.925C102.768 33.925 106.648 34.685 110.248 36.205C113.848 37.645 116.968 39.685 119.608 42.325C122.248 44.965 124.288 48.085 125.728 51.685C127.248 55.285 128.008 59.165 128.008 63.325C128.008 64.445 127.968 65.405 127.888 66.205C127.808 67.005 127.728 67.685 127.648 68.245C127.527 69.2151 126.692 69.925 125.714 69.925H87.273ZM98.6081 47.725C95.0081 47.725 92.0081 48.765 89.6081 50.845C87.9515 52.3303 86.6619 54.0603 85.7395 56.035C85.176 57.2416 86.1375 58.525 87.4692 58.525H109.343C110.614 58.525 111.57 57.3475 111.105 56.1653C110.307 54.1363 109.061 52.3628 107.368 50.845C105.128 48.765 102.208 47.725 98.6081 47.725Z" fill="black"/>
<path d="M148.446 64.525C148.446 66.765 148.806 68.845 149.526 70.765C150.326 72.685 151.366 74.325 152.646 75.685C154.006 77.045 155.566 78.125 157.326 78.925C159.086 79.725 160.926 80.125 162.846 80.125C164.766 80.125 166.606 79.725 168.366 78.925C170.126 78.125 171.646 77.045 172.926 75.685C174.286 74.325 175.326 72.685 176.046 70.765C176.846 68.845 177.246 66.765 177.246 64.525C177.246 62.285 176.846 60.205 176.046 58.285C175.326 56.365 174.286 54.725 172.926 53.365C171.646 52.005 170.126 50.925 168.366 50.125C166.606 49.325 164.766 48.925 162.846 48.925C160.926 48.925 159.086 49.325 157.326 50.125C155.566 50.925 154.006 52.005 152.646 53.365C151.366 54.725 150.326 56.365 149.526 58.285C148.806 60.205 148.446 62.285 148.446 64.525ZM194.046 64.525C194.046 68.605 193.206 72.485 191.526 76.165C189.846 79.845 187.566 83.085 184.686 85.885C181.886 88.685 178.566 90.925 174.726 92.605C170.966 94.285 167.006 95.125 162.846 95.125C158.606 95.125 154.606 94.285 150.846 92.605C147.086 90.925 143.766 88.685 140.886 85.885C138.086 83.085 135.846 79.845 134.166 76.165C132.486 72.485 131.646 68.605 131.646 64.525C131.646 60.445 132.486 56.565 134.166 52.885C135.846 49.205 138.086 45.965 140.886 43.165C143.766 40.365 147.086 38.125 150.846 36.445C154.606 34.765 158.606 33.925 162.846 33.925C167.006 33.925 170.966 34.765 174.726 36.445C178.566 38.125 181.886 40.365 184.686 43.165C187.566 45.965 189.846 49.205 191.526 52.885C193.206 56.565 194.046 60.445 194.046 64.525Z" fill="black"/>
<path d="M236.627 49.3833C236.627 50.0774 235.992 50.5991 235.307 50.485C234.827 50.405 234.227 50.325 233.507 50.245C232.867 50.165 232.107 50.125 231.227 50.125C226.987 50.125 223.627 51.445 221.147 54.085C218.667 56.725 217.427 60.605 217.427 65.725V91.925C217.427 93.0296 216.531 93.925 215.427 93.925H203.227C202.122 93.925 201.227 93.0296 201.227 91.925V37.125C201.227 36.0204 202.122 35.125 203.227 35.125H215.513C216.57 35.125 217.427 35.9818 217.427 37.0388C217.427 38.8289 219.856 39.8014 221.322 38.7749C221.462 38.6771 221.604 38.5805 221.747 38.485C223.187 37.525 224.947 36.645 227.027 35.845C229.107 34.965 231.507 34.525 234.227 34.525H234.627C235.731 34.525 236.627 35.4204 236.627 36.525V49.3833Z" fill="black"/>
<path d="M281.041 89.125C281.041 87.5334 278.899 86.7202 277.661 87.7199C277.317 87.9976 276.964 88.2659 276.601 88.525C275.161 89.645 273.321 90.645 271.081 91.525C268.921 92.325 266.441 92.725 263.641 92.725C260.361 92.725 257.121 91.965 253.921 90.445C250.801 88.845 248.001 86.725 245.521 84.085C243.041 81.445 241.041 78.365 239.521 74.845C238.001 71.245 237.241 67.405 237.241 63.325C237.241 59.245 238.001 55.445 239.521 51.925C241.041 48.325 243.041 45.205 245.521 42.565C248.001 39.925 250.801 37.845 253.921 36.325C257.121 34.725 260.361 33.925 263.641 33.925C266.441 33.925 268.921 34.365 271.081 35.245C273.321 36.125 275.161 37.085 276.601 38.125C276.827 38.2975 277.05 38.4722 277.269 38.649C278.667 39.7768 281.041 38.8458 281.041 37.0501C281.041 35.9869 281.903 35.125 282.966 35.125H295.241C296.345 35.125 297.241 36.0204 297.241 37.125V89.125C297.241 93.365 296.441 97.285 294.841 100.885C293.321 104.565 291.161 107.725 288.361 110.365C285.641 113.085 282.361 115.205 278.521 116.725C274.681 118.325 270.521 119.125 266.041 119.125C261.481 119.125 257.521 118.485 254.161 117.205C250.801 115.925 248.001 114.485 245.761 112.885C243.646 111.411 241.787 109.757 240.186 107.923C239.511 107.15 239.61 105.99 240.357 105.286L247.598 98.471C248.472 97.6489 249.862 97.7839 250.695 98.6476C251.483 99.4657 252.359 100.212 253.321 100.885C254.681 101.845 256.361 102.725 258.361 103.525C260.361 104.325 262.721 104.725 265.441 104.725C270.241 104.725 274.041 103.325 276.841 100.525C279.641 97.725 281.041 93.925 281.041 89.125ZM254.041 63.325C254.041 65.405 254.361 67.325 255.001 69.085C255.721 70.845 256.681 72.365 257.881 73.645C259.081 74.925 260.481 75.925 262.081 76.645C263.681 77.365 265.401 77.725 267.241 77.725C269.001 77.725 270.721 77.365 272.401 76.645C274.081 75.925 275.561 74.925 276.841 73.645C278.121 72.285 279.121 70.765 279.841 69.085C280.641 67.325 281.041 65.405 281.041 63.325C281.041 61.325 280.641 59.445 279.841 57.685C279.121 55.925 278.121 54.405 276.841 53.125C275.561 51.765 274.081 50.725 272.401 50.005C270.721 49.285 269.001 48.925 267.241 48.925C265.401 48.925 263.681 49.285 262.081 50.005C260.481 50.725 259.081 51.725 257.881 53.005C256.681 54.285 255.721 55.805 255.001 57.565C254.361 59.325 254.041 61.245 254.041 63.325Z" fill="black"/>
<path d="M324.794 91.925C324.794 93.0296 323.899 93.925 322.794 93.925H310.594C309.489 93.925 308.594 93.0296 308.594 91.925V37.125C308.594 36.0204 309.489 35.125 310.594 35.125H322.794C323.899 35.125 324.794 36.0204 324.794 37.125V91.925ZM325.994 18.325C325.994 21.045 325.154 23.245 323.474 24.925C321.794 26.525 319.434 27.325 316.394 27.325C313.674 27.325 311.474 26.525 309.794 24.925C308.194 23.245 307.394 21.045 307.394 18.325C307.394 15.605 308.194 13.445 309.794 11.845C311.474 10.165 313.674 9.32498 316.394 9.32498C319.434 9.32498 321.794 10.165 323.474 11.845C325.154 13.445 325.994 15.605 325.994 18.325Z" fill="black"/>
<path d="M368.641 92.2212C368.641 90.6783 366.67 89.8529 365.424 90.7638C365.065 91.0264 364.698 91.2801 364.321 91.525C362.961 92.405 361.281 93.205 359.281 93.925C357.281 94.725 355.001 95.125 352.441 95.125C349.401 95.125 346.681 94.685 344.281 93.805C341.881 92.845 339.801 91.605 338.041 90.085C336.281 88.565 334.921 86.805 333.961 84.805C333.081 82.725 332.641 80.565 332.641 78.325C332.641 73.525 334.161 69.525 337.201 66.325C340.321 63.125 344.601 61.045 350.041 60.085L366.996 57.0221C367.948 56.8501 368.67 56.0134 368.488 55.0632C368.167 53.3864 367.338 51.9403 366.001 50.725C364.321 49.125 361.801 48.325 358.441 48.325C356.121 48.325 354.161 48.645 352.561 49.285C350.961 49.925 349.601 50.605 348.481 51.325C347.866 51.7477 347.297 52.1982 346.775 52.6763C345.89 53.4857 344.495 53.5788 343.647 52.7309L337.483 46.5667C336.772 45.8564 336.693 44.7236 337.358 43.9708C338.728 42.4211 340.315 40.9925 342.121 39.685C344.041 38.245 346.441 36.925 349.321 35.725C352.281 34.525 355.721 33.925 359.641 33.925C363.401 33.925 366.801 34.525 369.841 35.725C372.961 36.925 375.641 38.605 377.881 40.765C380.121 42.845 381.841 45.325 383.041 48.205C384.241 51.005 384.841 54.045 384.841 57.325V91.925C384.841 93.0296 383.945 93.925 382.841 93.925H370.345C369.404 93.925 368.641 93.1622 368.641 92.2212ZM356.641 81.925C360.241 81.925 363.121 80.805 365.281 78.565C367.521 76.245 368.641 72.965 368.641 68.725C368.641 67.7877 367.792 67.0793 366.87 67.247L355.441 69.325C351.041 70.045 348.841 72.245 348.841 75.925C348.841 77.765 349.441 79.245 350.641 80.365C351.921 81.405 353.921 81.925 356.641 81.925Z" fill="black"/>
<circle cx="403.08" cy="18.325" r="18.0651" fill="#FF185E"/>
<path d="M399.263 28.296V21.652M399.263 21.652C399.263 21.652 399.263 15.0787 399.263 12.7705C399.386 10.4301 401.317 9.59965 403.187 9.59965C405.353 9.59965 406.9 11.3542 406.854 13.5529C406.782 16.9814 402.737 16.7468 402.737 16.7468C402.737 16.7468 408.138 16.3205 408.043 21.652C408.043 21.652 408.091 25.1633 403.684 25.1633C399.186 25.2218 399.263 21.652 399.263 21.652Z" stroke="white" stroke-width="2.66938" stroke-miterlimit="11.4737" stroke-linecap="round"/>
</svg>
